<svg width="13" height="3" viewBox="0 0 13 3" fill="none" xmlns="http://www.w3.org/2000/svg">
<path fill-rule="evenodd" clip-rule="evenodd" d="M3 1.5C3 2.32843 2.32837 3 1.5 3C0.671631 3 0 2.32843 0 1.5C0 0.67157 0.671631 0 1.5 0C2.32837 0 3 0.67157 3 1.5ZM8 1.5C8 2.32843 7.32837 3 6.5 3C5.67163 3 5 2.32843 5 1.5C5 0.67157 5.67163 0 6.5 0C7.32837 0 8 0.67157 8 1.5ZM11.5 3C12.3284 3 13 2.32843 13 1.5C13 0.67157 12.3284 0 11.5 0C10.6716 0 10 0.67157 10 1.5C10 2.32843 10.6716 3 11.5 3Z" fill="#080808"/>
</svg>
