<svg width="21" height="19" viewBox="0 0 21 19" fill="none" xmlns="http://www.w3.org/2000/svg">
<path d="M4.84921 1.56083C4.92349 0.966589 5.11752 0.44733 5.39644 0.00592041L2.53755 0.301591C1.51995 0.495411 0.750693 1.301 0.817314 2.34282L2.30726 17.0858C2.50108 18.1034 3.43387 18.8485 4.34849 18.8061L4.67181 18.7726C3.99383 18.0314 3.58803 17.0377 3.58803 16.0103V15.9228L4.84464 1.59741L4.84921 1.56083Z" fill="#67BA6C"/>
<path d="M10.6955 7.04105C11.7275 7.04105 12.5641 6.20444 12.5641 5.17244C12.5641 4.14044 11.7275 3.30383 10.6955 3.30383C9.66351 3.30383 8.8269 4.14044 8.8269 5.17244C8.8269 6.20444 9.66351 7.04105 10.6955 7.04105Z" fill="#67BA6C"/>
<path fill-rule="evenodd" clip-rule="evenodd" d="M5.58801 16.0103C5.58801 17.0069 6.33546 17.8789 7.20747 18.0035L17.4225 18.8755C18.4191 19.0001 19.2911 18.2527 19.4157 17.2561L20.6615 3.05465C20.6615 2.05806 20.0386 1.18604 19.042 1.06147L8.82693 0.189453C7.83034 0.189453 6.95833 0.812322 6.83375 1.80891L5.58801 16.0103ZM7.18616 11.2547L9.42105 9.52891C9.64912 9.29996 10.1053 9.41444 10.3333 9.64339L12.386 12.1619C12.5 12.2763 12.614 12.3908 12.8421 12.3908C13.0702 12.3908 13.1842 12.3908 13.2982 12.2763C13.6404 12.0474 13.6404 11.5895 13.4123 11.3605L12.7281 10.5592C12.5 10.3302 12.5 9.98682 12.7281 9.87234L15.9211 7.12492C16.1491 6.89597 16.6053 7.01044 16.8333 7.2394L18.8852 9.84119L19.4843 3.01099C19.4686 2.51921 19.1886 2.2738 18.9128 2.23119L8.78444 1.36658C8.29129 1.38184 8.04552 1.66275 8.00332 1.93915L7.18616 11.2547Z" fill="#67BA6C"/>
</svg>
