<svg width="20" height="20" viewBox="0 0 20 20" fill="none" xmlns="http://www.w3.org/2000/svg">
<path d="M4.51232 4C4.51232 1.79086 6.30806 0 8.52328 0C10.7385 0 12.5342 1.79086 12.5342 4V5C12.5342 7.20914 10.7385 9 8.52328 9C6.30806 9 4.51232 7.20914 4.51232 5V4Z" fill="#0572EF"/>
<path d="M0 16.5C0 13.1863 2.69364 10.5 6.01643 10.5H11.0301C14.3529 10.5 17.0466 13.1863 17.0466 16.5V17C17.0466 18.6569 15.6997 20 14.0383 20H3.00822C1.34682 20 0 18.6569 0 17V16.5Z" fill="#0572EF"/>
<path fill-rule="evenodd" clip-rule="evenodd" d="M14.1736 6.25739C14.0867 6.16473 14.0383 6.04263 14.0383 5.91577V3.59116C14.0383 3.315 14.2628 3.09116 14.5397 3.09116H16.8664C16.9962 3.09116 17.1209 3.1413 17.2143 3.23105L19.8464 5.75961C20.0485 5.95374 20.0515 6.27542 19.8532 6.4733L17.3902 8.92953C17.1898 9.12939 16.8632 9.12399 16.6696 8.9176L14.1736 6.25739ZM16.4315 4.75C16.4315 5.16422 16.0948 5.5 15.6795 5.5C15.2641 5.5 14.9274 5.16422 14.9274 4.75C14.9274 4.33578 15.2641 4 15.6795 4C16.0948 4 16.4315 4.33578 16.4315 4.75Z" fill="#0572EF"/>
</svg>
